<svg width="15" height="8" viewBox="0 0 15 8" fill="none" xmlns="http://www.w3.org/2000/svg">
<path d="M13.7353 0.214986C13.8069 0.146313 13.891 0.0926256 13.983 0.0569897C14.075 0.0213537 14.173 0.00446701 14.2715 0.00729418C14.3699 0.0101213 14.4668 0.0326071 14.5566 0.0734673C14.6465 0.114327 14.7276 0.172761 14.7952 0.245434C14.8628 0.318106 14.9157 0.403593 14.9508 0.497014C14.9859 0.590434 15.0025 0.689959 14.9997 0.789906C14.9969 0.889852 14.9748 0.988264 14.9345 1.07952C14.8943 1.17078 14.8368 1.25309 14.7652 1.32177L8.01916 7.79193C7.87999 7.92555 7.69573 8 7.50421 8C7.31269 8 7.12844 7.92555 6.98927 7.79193L0.242476 1.32177C0.169349 1.25354 0.110296 1.17125 0.0687522 1.07966C0.0272083 0.988064 0.0039987 0.889002 0.000472963 0.788224C-0.00305277 0.687446 0.013175 0.58696 0.0482139 0.492605C0.0832528 0.398249 0.136404 0.311904 0.20458 0.238585C0.272757 0.165267 0.354597 0.106435 0.445352 0.0655084C0.536106 0.0245819 0.633964 0.0023756 0.733241 0.000179768C0.832518 -0.00201559 0.931234 0.0158429 1.02366 0.0527182C1.11608 0.0895934 1.20037 0.144751 1.27162 0.214986L7.50421 6.1919L13.7353 0.214986Z" fill="white"/>
</svg>
