<svg width="46" height="46" viewBox="0 0 46 46" fill="none" xmlns="http://www.w3.org/2000/svg">
<circle cx="23" cy="23" r="23" fill="white"/>
<path fill-rule="evenodd" clip-rule="evenodd" d="M19.4897 23.085V36.057C19.4897 36.241 19.6384 36.3967 19.8294 36.3967H24.6488C24.8328 36.3967 24.9885 36.2481 24.9885 36.057V22.8727H28.4845C28.6614 22.8727 28.803 22.7383 28.8242 22.5613L29.1568 18.5912C29.171 18.393 29.0153 18.2232 28.8171 18.2232H24.9885V15.4066C24.9885 14.7484 25.5264 14.2106 26.1845 14.2106H28.8737C29.0577 14.2106 29.2134 14.062 29.2134 13.8709V9.90073C29.2134 9.71673 29.0648 9.56104 28.8737 9.56104H24.3233C21.6553 9.56104 19.4897 11.7266 19.4897 14.3946V18.2232H17.0836C16.8996 18.2232 16.7439 18.3718 16.7439 18.5629V22.533C16.7439 22.717 16.8925 22.8727 17.0836 22.8727H19.4897V23.085Z" fill="#1E4072"/>
</svg>
