<svg width="46" height="46" viewBox="0 0 46 46" fill="none" xmlns="http://www.w3.org/2000/svg">
<circle cx="23" cy="23" r="23" fill="white"/>
<path d="M31.767 16.3299C31.767 17.1687 31.0906 17.8452 30.2518 17.8452C29.4129 17.8452 28.7365 17.1619 28.7365 16.3299C28.7365 15.4978 29.4197 14.8146 30.2518 14.8146C31.0838 14.8146 31.767 15.4978 31.767 16.3299ZM29.8797 23.1352C29.8797 26.6528 27.0182 29.5143 23.5006 29.5143C19.9829 29.5143 17.1215 26.6528 17.1215 23.1352C17.1215 19.6175 19.9829 16.756 23.5006 16.756C27.0182 16.756 29.8797 19.6175 29.8797 23.1352ZM27.5865 23.1352C27.5865 20.8825 25.7532 19.0493 23.5006 19.0493C21.2479 19.0493 19.4147 20.8825 19.4147 23.1352C19.4147 25.3878 21.2479 27.221 23.5006 27.221C25.7532 27.221 27.5865 25.3878 27.5865 23.1352ZM36.4076 18.0143C36.4076 13.7187 32.9238 10.2349 28.6282 10.2349H18.0144C13.7188 10.2349 10.235 13.7187 10.235 18.0143V28.6281C10.235 32.9237 13.7188 36.4075 18.0144 36.4075H28.6282C32.9238 36.4075 36.4076 32.9237 36.4076 28.6281V18.0143ZM33.8506 28.5131C33.8506 31.4625 31.4559 33.8572 28.5065 33.8572H18.1226C15.1732 33.8572 12.7785 31.4625 12.7785 28.5131V18.1293C12.7785 15.1799 15.1732 12.7852 18.1226 12.7852H28.5065C31.4559 12.7852 33.8506 15.1799 33.8506 18.1293V28.5131Z" fill="#1E4072"/>
</svg>
